PathFileType	4	(X/Y/Z)	/Users/mathieubourgeois/Desktop/Analyse/Traitement/Sujet_06/Data/Transformed_Sujet_06_velo100.trc
DataRate	CameraRate	NumFrames	NumMarkers	Units	OrigDataRate	OrigDataStartFrame	OrigNumFrames
120.000000	120.000000	4	36	mm	120.000000	233	1864
Frame#	Time	RFHD			RANE			STRN			LANI			LKNE			T10			RHUM			RWRB			C7			LFWT			LTOE			RTOE			LWRA			LBWT			RBWT			RFWT			LKNI			RKNI			RKNE			LANE			RANI			LHEE			RHEE			LHUM			LRAD			RRAD			RWRA			LWRB			LFHD			LBHD			RBHD			RSHO			LSHO			CLAV			LCAR			RCAR			
		X1	Y1	Z1	X2	Y2	Z2	X3	Y3	Z3	X4	Y4	Z4	X5	Y5	Z5	X6	Y6	Z6	X7	Y7	Z7	X8	Y8	Z8	X9	Y9	Z9	X10	Y10	Z10	X11	Y11	Z11	X12	Y12	Z12	X13	Y13	Z13	X14	Y14	Z14	X15	Y15	Z15	X16	Y16	Z16	X17	Y17	Z17	X18	Y18	Z18	X19	Y19	Z19	X20	Y20	Z20	X21	Y21	Z21	X22	Y22	Z22	X23	Y23	Z23	X24	Y24	Z24	X25	Y25	Z25	X26	Y26	Z26	X27	Y27	Z27	X28	Y28	Z28	X29	Y29	Z29	X30	Y30	Z30	X31	Y31	Z31	X32	Y32	Z32	X33	Y33	Z33	X34	Y34	Z34	X35	Y35	Z35	X36	Y36	Z36	

234	1.941666666666667	279.5204467773438	1377.701538085938	108.8914794921874	0.9014055728912106	269.5261535644531	202.0208129882812	-18.33876991271973	1191.833740234375	47.82751464843743	-105.7015533447266	580.094970703125	-39.64314651489263	134.5908355712891	866.1500244140625	-131.0247650146485	-180.9595031738281	1342.88916015625	50.60069274902333	189.3933410644531	1121.847290039062	244.5193328857422	391.6392211914062	1026.387573242188	177.4461364746094	52.74552917480468	1453.218017578125	48.34187316894523	-160.5822448730469	1103.724853515625	-59.63526153564462	-24.196231842041	434.2993774414062	-127.9398345947266	167.9070129394531	176.8984680175781	177.6804656982422	403.0634765625	1023.754028320312	-131.4538269042969	-321.8855895996094	1140.49609375	-5.862735748291125	-318.4817810058594	1136.911743164062	104.1470336914061	-162.24853515625	1099.82421875	154.0253295898437	146.6956329345703	822.5953369140625	-36.18892288208011	36.63510131835936	632.2774047851562	94.17392730712886	17.55871009826658	682.3253173828125	189.4236297607422	-132.4798278808593	594.4482421875	-118.8195266723633	24.48458671569823	272.888671875	123.3361206054687	-179.6803436279297	613.7633056640625	-73.62042236328132	-57.49743270874026	262.1163940429688	161.5549011230468	179.7812805175782	1107.969604492188	-200.7661590576172	214.310302734375	1152.401489257812	-234.5229187011719	230.539810180664	1153.377563476562	291.6770019531249	431.7658081054688	1036.279541015625	228.1053466796875	428.8515319824219	1026.006103515625	-189.7643890380859	277.7235717773438	1374.826416015625	-34.72132110595708	200.5765228271484	1503.912231445312	-35.27129364013679	203.0027618408203	1526.103393554688	92.11978912353509	73.09327697753903	1414.844970703125	183.3030700683593	61.57514572143556	1407.828857421875	-97.11643981933601	66.10552978515625	1317.668334960938	46.5884704589843	478.4682922363281	1048.453247070312	-110.3432159423828	493.6646423339844	1042.275268554688	143.7401733398438	
235	1.95	279.9872436523438	1378.072021484375	108.2141952514648	-10.7265148162842	264.2861938476562	201.9256439208984	-17.6354160308838	1192.002319335938	47.59080886840813	-96.29483032226562	586.4981689453125	-39.24689102172857	138.4820404052735	876.719482421875	-130.8270416259766	-180.5980377197266	1342.939575195312	50.69690704345692	189.4422454833984	1121.925170898438	244.3687744140625	391.627197265625	1026.322143554688	177.4956512451172	52.95993423461913	1453.499145507812	48.09907531738273	-159.8895263671875	1103.895629882812	-59.31583023071298	-9.479942321777328	444.7297973632812	-128.037582397461	154.3732147216797	167.5257415771484	178.0161743164063	403.066650390625	1023.947265625	-131.3777160644531	-321.3741760253906	1140.824096679688	-5.897817611694445	-318.1141052246094	1137.084228515625	104.0634994506835	-162.163558959961	1099.737060546875	154.3241577148437	146.8281707763672	829.4182739257812	-34.78831481933597	29.31017875671386	627.0889282226562	94.72739410400386	10.46631240844724	676.9685668945312	189.9453582763672	-123.9347991943359	600.4672241210938	-118.5227355957032	13.56301593780516	267.4141235351562	123.3983535766601	-171.75927734375	618.066650390625	-73.50500488281256	-68.88123321533205	258.1904907226562	161.108657836914	179.8579559326172	1108.144165039062	-201.0046997070313	214.4468688964844	1152.570068359375	-234.7303466796875	230.5712127685547	1153.426635742188	291.6113891601562	431.7662048339844	1036.18994140625	228.1763458251953	428.9000549316406	1026.189453125	-189.6575012207031	277.9057006835938	1375.219360351562	-35.453784942627	200.7126312255859	1504.317260742188	-35.78766632080085	203.1366271972656	1526.886962890625	91.68715667724602	73.40122222900388	1415.1015625	182.986602783203	61.6689796447754	1408.12646484375	-97.44873046875007	66.65306854248047	1318.025390625	46.26791763305657	478.5341186523438	1048.459228515625	-110.2159042358399	493.6533813476562	1042.252075195312	143.7802429199219	
236	1.958333333333333	280.4772644042969	1378.443359375	107.5475463867187	-22.9508800506592	260.2966918945312	201.6114044189453	-17.05059051513673	1191.988403320312	47.41034698486321	-86.52378082275391	591.1976318359375	-39.06893539428715	141.9187774658203	886.7613525390625	-130.4892883300782	-180.2579040527344	1343.021362304688	50.6572036743163	189.4234161376953	1121.958984375	244.2604064941406	391.6145324707031	1026.258178710938	177.5587158203125	53.39688110351562	1453.471923828125	47.75707626342765	-159.2178649902344	1104.03271484375	-58.95233154296884	5.808471202850358	453.8273010253906	-128.1443786621094	140.0793151855468	159.5955963134766	178.4340515136719	403.0556030273438	1024.122924804688	-131.2248077392578	-320.9148864746094	1141.133422851562	-6.127834796905627	-317.833251953125	1137.359619140625	103.8171005249022	-162.1827545166016	1099.738525390625	154.6268920898437	153.9078369140625	841.065185546875	-34.01427841186526	22.57962417602538	622.8412475585938	95.24691772460933	3.974606752395607	672.6607666015625	190.2801513671875	-114.6406021118164	604.9944458007812	-118.3435974121094	2.049612998962387	263.1553649902344	123.3093872070312	-163.1220245361328	620.7957763671875	-73.48059844970709	-80.82952880859376	255.39111328125	160.2893829345703	179.9082183837891	1108.263305664062	-201.1972961425782	214.55419921875	1152.7138671875	-234.9338989257813	230.5121765136718	1153.39208984375	291.5844116210937	431.7301330566406	1036.1064453125	228.2564849853516	428.9190063476562	1026.367919921875	-189.4759368896484	278.0549926757812	1375.69580078125	-36.06645965576177	200.8334045410156	1504.711181640625	-36.14648437500007	203.7689056396484	1526.71044921875	91.19856262207024	73.73103332519528	1415.339599609375	182.707778930664	61.79111480712892	1408.402099609375	-97.81977081298835	67.16133117675781	1318.34130859375	45.97775650024407	478.6230163574219	1048.483276367188	-110.0844879150391	493.6471862792969	1042.252075195312	143.8868408203125	
237	1.966666666666667	280.88671875	1378.803588867188	107.0053939819335	-35.64085388183596	257.4101867675781	201.01611328125	-16.45273017883301	1192.157958984375	47.29347610473626	-76.99581909179688	595.0167236328125	-38.77236938476567	144.83154296875	896.25048828125	-130.0839996337891	-179.9455718994141	1343.146118164062	50.48877334594716	189.3662719726562	1121.917236328125	244.1631469726562	391.5634460449219	1026.185791015625	177.6614379882812	53.45537185668945	1454.044067382812	47.80051422119132	-158.6518859863281	1104.224487304688	-58.65408325195322	21.59513473510744	461.7290954589844	-128.1956481933594	125.2319793701172	152.9918365478516	178.8525695800782	403.133056640625	1024.316650390625	-131.0097961425781	-320.5176086425781	1141.475463867188	-6.493253707885851	-317.650146484375	1137.706298828125	103.4294357299804	-162.2682342529297	1099.849975585938	154.9372406005859	162.0397491455078	853.337158203125	-33.69184494018558	16.77308654785155	619.3515625	95.76238250732418	-1.782849669456505	669.2996826171875	190.661865234375	-104.7281799316406	607.9391479492188	-118.2643280029297	-9.983328819274917	260.0677795410156	122.993049621582	-153.8266754150391	621.9024047851562	-73.52035522460943	-93.26568603515626	253.8296508789062	159.1836853027343	179.9496765136719	1108.354614257812	-201.3795928955078	214.674301147461	1152.805786132812	-235.095443725586	230.3817291259765	1153.298461914062	291.6095886230468	431.6882629394531	1036.019775390625	228.3945465087891	428.9628601074219	1026.549194335938	-189.2816467285156	278.2576599121094	1376.225830078125	-36.64550018310552	200.9266204833984	1505.217041015625	-36.42570877075202	204.0825347900391	1527.036499023438	90.94543457031243	73.98567962646482	1415.50244140625	182.5409240722655	61.95568084716798	1408.6669921875	-98.11091613769538	67.70697784423828	1318.689208984375	45.68317031860344	478.7343139648438	1048.496948242188	-109.9028091430664	493.6263122558594	1042.236694335938	144.0211791992188	
